<svg xmlns="http://www.w3.org/2000/svg" viewBox="0 0 512 512"><path d="M470.9 11H41.1C24.5 11 11 24.5 11 41.1v429.8c0 16.6 13.5 30.1 30.1 30.1h429.8c16.6 0 30.1-13.5 30.1-30.1V41.1c0-16.6-13.5-30.1-30.1-30.1zm-10.7 449.2H51.8V208.8h408.3v251.4zm0-292.2H51.8V51.8h408.3V168z"/><path d="M376.5 130.3H388c11.3 0 20.4-9.1 20.4-20.4 0-11.3-9.1-20.4-20.4-20.4h-11.5c-11.3 0-20.4 9.1-20.4 20.4 0 11.3 9.2 20.4 20.4 20.4zm-94.1 0h11.5c11.3 0 20.4-9.1 20.4-20.4 0-11.3-9.1-20.4-20.4-20.4h-11.5c-11.3 0-20.4 9.1-20.4 20.4 0 11.3 9.1 20.4 20.4 20.4zm-69.7 295.9c13.2 5.9 23.7-2.4 27.2-9.7L309 269.9c4.8-10.2.4-22.4-9.8-27.2-10.2-4.8-22.4-.5-27.2 9.8L203 399c-4.9 10.2-.6 22.6 9.7 27.2zm109.1-134.9l50.2 43.2-50.2 43.2c-7.4 6.4-7.4 16.8 0 23.2 9.8 8.5 22.5 3.8 26.9 0l63.7-54.8c7.4-6.4 7.4-16.8 0-23.2l-63.7-54.8c-7.4-6.4-19.5-6.4-26.9 0-7.4 6.4-7.4 16.8 0 23.2zM99.6 346l63.7 54.8c7.4 6.4 19.5 6.4 26.9 0 7.4-6.4 7.4-16.8 0-23.2L140 334.5l50.2-43.2c7.4-6.4 7.4-16.8 0-23.2-9.8-8.5-22.5-3.8-26.9 0l-63.7 54.8c-7.5 6.4-7.5 16.7 0 23.1z"/></svg>