<svg id="fond" xmlns="http://www.w3.org/2000/svg" viewBox="0 0 900 900"><defs><style>.cls-1{fill:#fafafa;}</style></defs><title>shape-1</title><path class="cls-1" d="M898.34,83.93a364.37,364.37,0,0,0-184,49.55L683,149.76A694.63,694.63,0,0,1,292,224.3q-6.09-.83-12.27-1.37l-.49-.06h0c-6.92-.58-13.92-.9-21-.9C122.22,222,12,332.25,12,468.27S122.22,714.56,258.25,714.56a248.93,248.93,0,0,0,27-1.48h0L367.54,705a650.44,650.44,0,0,1,346.78,61.55h0a364.37,364.37,0,0,0,184,49.55c202.18,0,366.07-163.9,366.07-366.07S1100.52,83.93,898.34,83.93Z"/></svg>