<svg id="fond" xmlns="http://www.w3.org/2000/svg" viewBox="0 0 900 900"><defs><style>.cls-1{fill:#fafafa;}</style></defs><title>shape-2</title><path class="cls-1" d="M13.61,83.93a364.37,364.37,0,0,1,184,49.55L229,149.76A694.63,694.63,0,0,0,620,224.3q6.09-.83,12.27-1.37l.49-.06h0c6.92-.58,13.92-.9,21-.9C789.73,222,900,332.25,900,468.27S789.73,714.56,653.71,714.56a248.93,248.93,0,0,1-27-1.48h0L544.41,705a650.44,650.44,0,0,0-346.78,61.55h0a364.37,364.37,0,0,1-184,49.55c-202.18,0-366.07-163.9-366.07-366.07S-188.56,83.93,13.61,83.93Z"/></svg>